<svg class="svg">
	<clipPath id="my-clip-path" clipPathUnits="objectBoundingBox">
		<path d="M0.862,0.002 c0.024,-0.004,0.05,-0.001,0.069,0.013 c0.021,0.014,0.032,0.036,0.039,0.057 c0.011,0.035,0.013,0.071,0.013,0.107 c-0.002,0.036,-0.003,0.072,-0.003,0.109 c-0.001,0.018,-0.001,0.035,-0.001,0.053 c0,0.039,0,0.077,0,0.116 c0.001,0.021,0.001,0.043,0.002,0.064 c0.003,0.08,0.007,0.159,0.013,0.239 c0.002,0.023,0.004,0.046,0.005,0.069 c0.001,0.035,0.001,0.072,-0.01,0.106 c-0.006,0.019,-0.017,0.038,-0.035,0.051 c-0.015,0.011,-0.034,0.016,-0.053,0.015 c-0.031,0,-0.061,-0.009,-0.089,-0.02 c-0.032,-0.013,-0.062,-0.03,-0.092,-0.047 c-0.16,-0.09,-0.325,-0.173,-0.494,-0.249 c-0.055,-0.025,-0.114,-0.046,-0.164,-0.08 c-0.023,-0.016,-0.045,-0.034,-0.056,-0.059 c-0.008,-0.017,-0.009,-0.037,-0.001,-0.055 c0.009,-0.022,0.028,-0.04,0.047,-0.056 c0.044,-0.035,0.097,-0.057,0.148,-0.083 C0.362,0.272,0.519,0.185,0.672,0.092 c0.035,-0.021,0.069,-0.044,0.106,-0.062 c0.026,-0.013,0.054,-0.024,0.084,-0.028">
		
	</path>
	</clipPath>
</svg>