<svg width="1920" height="353" viewBox="0 0 1920 353" fill="none" xmlns="http://www.w3.org/2000/svg">
<g clip-path="url(#clip0)">
<path fill-rule="evenodd" clip-rule="evenodd" d="M1856.14 156.83C1877.2 163.91 1898.41 170.61 1920 175.89V353H0V352.62C3.6839 351.629 7.43385 350.941 11.182 350.253C13.447 349.838 15.7113 349.422 17.96 348.94C73.45 338.28 128.61 325.83 183.1 310.89C190.377 309.274 197.52 307.18 204.663 305.085C205.785 304.756 206.907 304.427 208.03 304.1C283.48 283.42 357.63 258.29 431.01 231.26C446.162 225.706 461.183 219.793 476.203 213.88C483.873 210.861 491.543 207.841 499.23 204.87C555.42 181.77 611.82 159.16 668.53 137.38C682.514 131.705 696.659 126.458 710.804 121.21C718.943 118.19 727.082 115.171 735.19 112.07C770.6 98.87 806.24 86.29 842.06 74.25C843.399 73.8085 844.737 73.3667 846.076 72.9249C889.705 58.528 933.477 44.0841 978.67 35.42C1038.51 23.69 1099.16 16.02 1160.04 12.62C1163.8 12.5026 1167.56 12.3736 1171.32 12.2446C1192.55 11.5167 1213.81 10.7879 1235.03 12.13C1260.13 12.69 1285.12 15.04 1310.1 17.39C1358.49 20.91 1406.53 28.38 1454 38.27C1466.65 40.7727 1479.22 43.6233 1491.79 46.4737C1501.47 48.6689 1511.15 50.8639 1520.86 52.9C1549.26 59.77 1577.62 66.78 1605.72 74.83C1670.25 92.71 1734.13 112.99 1797.08 135.82C1805.15 138.616 1813.17 141.561 1821.19 144.505C1832.78 148.764 1844.38 153.022 1856.14 156.83Z" fill="white"/>
</g>
<defs>
<clipPath id="clip0">
<rect width="1920" height="353" fill="white"/>
</clipPath>
</defs>
</svg>
