<svg width="1920" height="353" viewBox="0 0 1920 353" fill="none" xmlns="http://www.w3.org/2000/svg">
<path fill-rule="evenodd" clip-rule="evenodd" d="M1920 0H0V352.62C3.6804 351.63 7.42672 350.942 11.1713 350.255L11.182 350.253C13.447 349.838 15.7113 349.422 17.96 348.94C73.45 338.28 128.61 325.83 183.1 310.89C190.377 309.274 197.52 307.18 204.663 305.085C205.785 304.756 206.907 304.427 208.03 304.1C283.48 283.42 357.63 258.29 431.01 231.26C446.162 225.706 461.183 219.793 476.203 213.88L476.622 213.715C484.153 210.751 491.683 207.787 499.23 204.87C555.42 181.77 611.82 159.16 668.53 137.38C682.486 131.716 696.603 126.479 710.72 121.241L710.804 121.21L711.066 121.113C719.118 118.125 727.169 115.138 735.19 112.07C770.6 98.8701 806.24 86.2901 842.06 74.2501C842.945 73.9584 843.829 73.6666 844.713 73.3748L846.076 72.925C889.705 58.5281 933.477 44.0842 978.67 35.4201C1038.51 23.6901 1099.16 16.0201 1160.04 12.6201C1163.8 12.5027 1167.56 12.3738 1171.32 12.2448L1171.32 12.2447C1192.55 11.5168 1213.81 10.788 1235.03 12.1301C1260.13 12.6901 1285.12 15.0401 1310.1 17.3901C1358.49 20.9101 1406.53 28.3801 1454 38.2701C1466.64 40.7716 1479.21 43.6207 1491.77 46.4697L1491.79 46.4738C1501.47 48.669 1511.15 50.864 1520.86 52.9001C1549.26 59.7701 1577.62 66.7801 1605.72 74.8301C1670.25 92.7101 1734.13 112.99 1797.08 135.82C1805.1 138.599 1813.07 141.526 1821.05 144.452L1821.19 144.505C1832.78 148.764 1844.38 153.022 1856.14 156.83C1877.2 163.91 1898.41 170.61 1920 175.89V0Z" fill="#10ADF4"/>
</svg>
