<svg width="1919" height="341" viewBox="0 0 1919 341" fill="none" xmlns="http://www.w3.org/2000/svg">
<path fill-rule="evenodd" clip-rule="evenodd" d="M1919 0H0V177.19C2.47116 177.888 4.94852 178.565 7.42553 179.242L7.42612 179.242C11.9755 180.485 16.5237 181.727 21.03 183.1C23.0526 183.594 25.0541 184.165 27.0553 184.737L27.056 184.737C28.4186 185.126 29.781 185.516 31.15 185.88C54.71 193.34 78.19 201.09 101.34 209.76C103.845 210.855 106.433 211.746 109.022 212.636C110.049 212.99 111.077 213.343 112.1 213.71C114.98 214.773 117.875 215.788 120.771 216.804C124.823 218.226 128.877 219.649 132.89 221.2C135.772 222.324 138.716 223.28 141.66 224.237L141.661 224.237L141.662 224.238C145.397 225.452 149.133 226.665 152.74 228.22C154.278 228.734 155.82 229.24 157.361 229.746C161.573 231.128 165.787 232.511 169.93 234.07C170.97 234.37 171.99 234.72 172.98 235.14C173.245 235.205 173.637 235.303 174.03 235.4C174.423 235.498 174.815 235.595 175.08 235.66C177.233 236.743 179.539 237.445 181.845 238.147L181.845 238.147C183.18 238.553 184.515 238.96 185.82 239.44C191.543 241.27 197.252 243.139 202.961 245.007C210.29 247.406 217.617 249.804 224.97 252.12C225.98 252.42 226.99 252.73 227.99 253.06C232.887 254.559 237.787 256.044 242.687 257.53C252.077 260.376 261.466 263.223 270.83 266.16C273.368 266.882 275.906 267.604 278.443 268.326L278.445 268.327C314.768 278.664 351.112 289.008 387.91 297.57C423.16 305.84 458.5 313.71 494.06 320.55C519.57 324.97 545.12 329.24 570.85 332.07C581.652 333.361 592.488 334.274 603.324 335.187C610.192 335.766 617.061 336.345 623.92 337.02C645.35 339 666.81 340.58 688.34 341H738.63C784 339.96 829.17 335.08 874.11 328.94C907.44 323.77 940.79 318.36 973.55 310.21C1011.69 300.566 1049.02 288.065 1086.3 275.578C1089.15 274.625 1091.99 273.672 1094.84 272.72C1096.68 272.089 1098.52 271.446 1100.36 270.803L1100.36 270.8L1100.37 270.798C1103.95 269.545 1107.53 268.292 1111.14 267.13C1118.02 264.68 1124.9 262.246 1131.79 259.812L1131.79 259.81C1140.89 256.593 1149.99 253.376 1159.08 250.12C1161.62 249.011 1164.25 248.125 1166.88 247.238L1167.17 247.14C1169.76 245.96 1172.48 245.08 1175.21 244.23C1177.78 242.97 1180.51 242.07 1183.26 241.24C1188.64 239.01 1194.1 237.008 1199.56 235.006L1199.56 235.005C1203.34 233.622 1207.11 232.239 1210.86 230.78C1223.1 226.403 1235.19 221.649 1247.29 216.896L1247.29 216.895L1247.29 216.894C1253.46 214.469 1259.63 212.045 1265.82 209.67C1266.1 209.568 1266.38 209.466 1266.66 209.363L1266.66 209.361C1267.8 208.942 1268.95 208.521 1270.11 208.12C1273.44 206.71 1276.81 205.38 1280.24 204.21C1289.25 200.55 1298.3 196.992 1307.36 193.433L1307.38 193.428C1312.22 191.524 1317.07 189.62 1321.91 187.7C1323.31 187.17 1324.72 186.65 1326.16 186.14C1327.75 185.33 1329.43 184.73 1331.16 184.22C1336.21 181.97 1341.35 179.942 1346.49 177.913C1350.62 176.281 1354.76 174.648 1358.85 172.9C1362.58 171.577 1366.22 170.038 1369.87 168.498C1374.35 166.604 1378.84 164.71 1383.47 163.22L1383.68 162.66C1390.95 160.006 1398.11 157.029 1405.26 154.052L1405.26 154.05C1411.83 151.317 1418.4 148.584 1425.06 146.1C1430.09 144.04 1435.16 142.1 1440.25 140.19C1443.44 138.932 1446.63 137.664 1449.82 136.395L1449.82 136.394C1459.54 132.528 1469.25 128.663 1479.08 125.11C1479.9 124.798 1480.72 124.485 1481.54 124.171L1481.59 124.15L1481.59 124.149C1486.08 122.429 1490.58 120.705 1495.17 119.23C1509.02 113.91 1523.03 108.87 1537.1 104.11C1541.73 102.28 1546.48 100.73 1551.24 99.24C1580.19 88.63 1609.63 79.29 1639.06 70.09C1660.12 63.2215 1681.44 57.2013 1702.76 51.1812L1702.77 51.1797C1711.09 48.83 1719.41 46.4802 1727.72 44.08C1734.47 42.4827 1741.17 40.6707 1747.86 38.8584L1747.86 38.8581L1747.9 38.849C1749.36 38.4519 1750.83 38.0548 1752.3 37.66C1797.82 25.77 1843.68 15.22 1889.87 6.28003C1893.85 5.37664 1897.88 4.64171 1901.91 3.90677L1901.91 3.90668C1907.65 2.86002 1913.39 1.81334 1919 0.280029V0Z" fill="white"/>
</svg>
