<svg width="2560" height="340pt" viewBox="0 0 1920 340" xmlns="http://www.w3.org/2000/svg"><g fill="#10adf4"><path d="M1854.99 13.57c21.6-4.72 43.41-8.52 65.01-13.2V340H764.49c41.65-2.17 83.14-6.93 124.37-13.16 32.9-5.37 65.8-11.04 98-19.78 2.36-.72 4.74-1.37 7.14-1.98 12.62-3.82 25.39-7.15 37.9-11.33 26.83-8.6 53.62-17.35 80.21-26.67 16-5.63 32.02-11.2 47.95-17 5.37-2 10.74-4.03 16.15-5.94 2.64-1.07 5.32-2.05 8.03-2.96 6.48-2.62 13.09-4.91 19.62-7.41 21.13-7.65 42.03-15.94 62.97-24.1 1.42-.53 2.84-1.06 4.29-1.58 3.34-1.36 6.7-2.68 10.09-3.93 12.19-4.87 24.41-9.62 36.6-14.47 1.41-.54 2.83-1.07 4.26-1.6 1.67-.69 3.36-1.36 5.06-2.03 1.65-.64 3.32-1.28 5.01-1.9 13.48-5.68 27.18-10.86 40.69-16.48 2.1-.86 4.2-1.73 6.31-2.58 1.65-.67 3.3-1.33 4.98-1.97 13.96-5.72 27.89-11.54 41.93-17.07 1.68-.67 3.37-1.33 5.08-1.98 3.35-1.33 6.71-2.66 10.11-3.92 12.93-5.05 25.79-10.3 38.84-15.08a256.5 256.5 0 018.05-3c2.64-1.03 5.32-2.01 8.02-2.93 9.16-3.4 18.33-6.82 27.57-10.03 3.76-1.41 7.57-2.73 11.4-4 1.25-.48 2.5-.95 3.79-1.42 4.44-1.49 8.85-3.08 13.31-4.52 11.57-4.21 23.2-8.27 34.92-12.08.96-.33 1.94-.66 2.94-.99 16.63-5.43 33.24-10.93 49.97-16.07 4.15-1.35 8.35-2.6 12.52-3.93 12.48-3.71 24.89-7.64 37.46-11.05 54.49-15.7 109.46-29.78 164.96-41.49zM0 177.11c7.44 1.62 14.72 3.92 22.05 5.96 11.34 2.92 22.38 6.82 33.52 10.35 15.72 5.09 31.29 10.61 46.77 16.36 3.54 1.42 7.13 2.69 10.75 3.9 1.26.47 2.53.94 3.79 1.43 12.3 4.36 24.59 8.71 36.89 13.06 5.72 1.95 11.48 3.82 17.18 5.84 1.01.37 2.03.74 3.04 1.11.52.15 1.56.45 2.07.6 17.51 6.14 35.26 11.63 52.92 17.33 14.29 4.35 28.58 8.69 42.86 13.05 35.5 10.18 71 20.42 106.93 29.02 21.2 5.26 42.58 9.83 63.89 14.66 46.3 10.23 93.04 18.63 140.22 23.5 26.96 2.28 53.89 5.11 80.9 6.72H0V177.11z"/></g></svg>