<svg width="1920" height="389" viewBox="0 0 1920 389" fill="none" xmlns="http://www.w3.org/2000/svg">
<path fill-rule="evenodd" clip-rule="evenodd" d="M1920 0H0V177.19C6.9484 178.683 13.7909 180.665 20.6342 182.646C24.5161 183.771 28.3982 184.895 32.3 185.93C56.11 193.51 79.89 201.24 103.23 210.16C149.16 226.79 195.31 242.83 242.05 257.05C295 273.22 348.32 288.32 402.29 300.72L403.674 301.033C435.663 308.259 467.655 315.486 499.91 321.42C519.45 324.71 538.98 327.98 558.63 330.48C577.909 333.007 597.291 334.619 616.665 336.231C618.143 336.354 619.622 336.477 621.1 336.6C647.97 339.4 674.95 340.79 701.96 341.53C705.037 341.521 708.116 341.533 711.196 341.545C721.146 341.585 731.102 341.625 741.03 340.93C785.89 339.9 830.55 334.99 875 328.95C913.89 322.89 952.86 316.56 990.82 305.94C994.383 304.903 997.952 303.884 1001.52 302.864C1010.96 300.167 1020.4 297.469 1029.75 294.45C1075.68 279.87 1121.27 264.25 1166.52 247.69C1176.21 244.147 1185.87 240.521 1195.53 236.895C1205.77 233.051 1216.01 229.206 1226.29 225.46C1285.48 202.48 1344.67 179.49 1403.34 155.21C1416.28 149.842 1429.33 144.761 1442.38 139.679C1449.43 136.931 1456.49 134.183 1463.53 131.39C1501.42 116.695 1539.83 103.367 1578.22 90.0458L1578.73 89.8701C1620.74 75.9801 1662.85 62.3201 1705.56 50.7301C1708.81 49.8267 1712.05 48.8767 1715.29 47.9267C1722.45 45.8271 1729.61 43.7273 1736.91 42.1301C1759.11 35.8801 1781.54 30.4301 1803.96 25.0101C1808.88 23.9837 1813.77 22.7933 1818.66 21.603C1825.34 19.975 1832.02 18.3473 1838.8 17.1401C1854 13.5533 1869.33 10.5408 1884.66 7.52955C1896.46 5.20968 1908.26 2.89053 1920 0.310059V0Z" fill="white"/>
</svg>
