<?xml version="1.0" encoding="UTF-8" ?>
<!DOCTYPE svg PUBLIC "-//W3C//DTD SVG 1.1//EN" "http://www.w3.org/Graphics/SVG/1.1/DTD/svg11.dtd">
<svg width="960pt" height="655pt" viewBox="0 0 960 655" version="1.1" xmlns="http://www.w3.org/2000/svg">
<g id="#75af26ff">
<path fill="#75af26" opacity="1.00" d=" M 938.92 4.44 C 945.94 3.23 952.96 1.22 960.00 0.59 L 960.00 566.00 C 931.07 558.77 903.53 547.17 875.30 537.76 C 843.54 526.87 811.31 517.43 778.83 508.94 C 738.69 499.23 698.22 489.90 656.93 486.84 C 634.69 484.73 612.34 483.02 589.99 483.99 C 567.26 484.58 544.60 486.96 522.09 490.11 C 499.53 493.51 476.98 497.48 455.16 504.25 C 412.59 517.12 370.84 532.50 329.39 548.55 C 292.25 562.69 255.75 578.40 218.60 592.49 C 152.73 617.09 85.18 637.57 16.13 651.06 C 10.76 652.21 5.31 653.00 0.00 654.40 L 0.00 88.47 C 33.93 97.17 66.15 111.21 99.52 121.70 C 135.93 133.45 172.72 144.19 210.12 152.34 C 241.04 159.54 272.35 165.40 304.04 167.74 C 319.98 169.31 335.96 170.48 351.97 170.77 C 380.48 170.99 408.96 168.46 437.18 164.50 C 460.56 161.02 483.90 156.83 506.50 149.76 C 566.76 131.35 625.44 108.24 683.92 84.89 C 766.25 50.48 851.34 22.01 938.92 4.44 Z" />
</g>
</svg>
